{
    "asset" : {
        "generator" : "Khronos glTF Blender I/O v1.4.40",
        "version" : "2.0"
    },
    "scene" : 0,
    "scenes" : [
        {
            "name" : "Scene",
            "nodes" : [
                0
            ]
        }
    ],
    "nodes" : [
        {
            "mesh" : 0,
            "name" : "Mesh_0.001"
        }
    ],
    "materials" : [
        {
            "doubleSided" : true,
            "name" : "Rock_material.001",
            "normalTexture" : {
                "index" : 0,
                "texCoord" : 0
            },
            "pbrMetallicRoughness" : {
                "baseColorTexture" : {
                    "index" : 1,
                    "texCoord" : 0
                },
                "metallicFactor" : 0,
                "roughnessFactor" : 0.8727269768714905
            }
        }
    ],
    "meshes" : [
        {
            "name" : "Mesh_0.001",
            "primitives" : [
                {
                    "attributes" : {
                        "POSITION" : 0,
                        "NORMAL" : 1,
                        "TANGENT" : 2,
                        "TEXCOORD_0" : 3,
                        "TEXCOORD_1" : 4
                    },
                    "indices" : 5,
                    "material" : 0
                }
            ]
        }
    ],
    "textures" : [
        {
            "sampler" : 0,
            "source" : 0
        },
        {
            "sampler" : 0,
            "source" : 1
        }
    ],
    "images" : [
        {
            "mimeType" : "image/png",
            "name" : "Rock_material_normal",
            "uri" : "Rock_material_normal.png"
        },
        {
            "mimeType" : "image/png",
            "name" : "Rock_material_baseColor",
            "uri" : "Rock_material_baseColor.png"
        }
    ],
    "accessors" : [
        {
            "bufferView" : 0,
            "componentType" : 5126,
            "count" : 972,
            "max" : [
                0.9539644718170166,
                1.0254700183868408,
                0.81574946641922
            ],
            "min" : [
                -1.0341564416885376,
                -0.9663206338882446,
                -0.8231918215751648
            ],
            "type" : "VEC3"
        },
        {
            "bufferView" : 1,
            "componentType" : 5126,
            "count" : 972,
            "type" : "VEC3"
        },
        {
            "bufferView" : 2,
            "componentType" : 5126,
            "count" : 972,
            "type" : "VEC4"
        },
        {
            "bufferView" : 3,
            "componentType" : 5126,
            "count" : 972,
            "type" : "VEC2"
        },
        {
            "bufferView" : 4,
            "componentType" : 5126,
            "count" : 972,
            "type" : "VEC2"
        },
        {
            "bufferView" : 5,
            "componentType" : 5123,
            "count" : 1668,
            "type" : "SCALAR"
        }
    ],
    "bufferViews" : [
        {
            "buffer" : 0,
            "byteLength" : 11664,
            "byteOffset" : 0
        },
        {
            "buffer" : 0,
            "byteLength" : 11664,
            "byteOffset" : 11664
        },
        {
            "buffer" : 0,
            "byteLength" : 15552,
            "byteOffset" : 23328
        },
        {
            "buffer" : 0,
            "byteLength" : 7776,
            "byteOffset" : 38880
        },
        {
            "buffer" : 0,
            "byteLength" : 7776,
            "byteOffset" : 46656
        },
        {
            "buffer" : 0,
            "byteLength" : 3336,
            "byteOffset" : 54432
        }
    ],
    "samplers" : [
        {
            "magFilter" : 9729,
            "minFilter" : 9986
        }
    ],
    "buffers" : [
        {
            "byteLength" : 57768,
            "uri" : "hard_rock.bin"
        }
    ]
}
