{
    "asset" : {
        "generator" : "Khronos glTF Blender I/O v1.4.40",
        "version" : "2.0"
    },
    "scene" : 0,
    "scenes" : [
        {
            "name" : "Scene",
            "nodes" : [
                0
            ]
        }
    ],
    "nodes" : [
        {
            "mesh" : 0,
            "name" : "defaultMaterial"
        }
    ],
    "materials" : [
        {
            "doubleSided" : true,
            "name" : "DefaultMaterial",
            "normalTexture" : {
                "index" : 0,
                "texCoord" : 0
            },
            "occlusionTexture" : {
                "index" : 1,
                "texCoord" : 0
            },
            "pbrMetallicRoughness" : {
                "baseColorTexture" : {
                    "index" : 2,
                    "texCoord" : 0
                },
                "metallicRoughnessTexture" : {
                    "index" : 1,
                    "texCoord" : 0
                }
            }
        }
    ],
    "meshes" : [
        {
            "name" : "defaultMaterial",
            "primitives" : [
                {
                    "attributes" : {
                        "POSITION" : 0,
                        "NORMAL" : 1,
                        "TANGENT" : 2,
                        "TEXCOORD_0" : 3
                    },
                    "indices" : 4,
                    "material" : 0
                }
            ]
        }
    ],
    "textures" : [
        {
            "sampler" : 0,
            "source" : 0
        },
        {
            "sampler" : 0,
            "source" : 1
        },
        {
            "sampler" : 0,
            "source" : 2
        }
    ],
    "images" : [
        {
            "mimeType" : "image/png",
            "name" : "DefaultMaterial_normal",
            "uri" : "DefaultMaterial_normal.png"
        },
        {
            "mimeType" : "image/png",
            "name" : "DefaultMaterial_metallicRoughness",
            "uri" : "DefaultMaterial_metallicRoughness.png"
        },
        {
            "mimeType" : "image/jpeg",
            "name" : "DefaultMaterial_baseColor",
            "uri" : "DefaultMaterial_baseColor.jpg"
        }
    ],
    "accessors" : [
        {
            "bufferView" : 0,
            "componentType" : 5126,
            "count" : 2982,
            "max" : [
                0.9982349872589111,
                1,
                0.9391779899597168
            ],
            "min" : [
                -0.9982349872589111,
                -1,
                -0.9391779899597168
            ],
            "type" : "VEC3"
        },
        {
            "bufferView" : 1,
            "componentType" : 5126,
            "count" : 2982,
            "type" : "VEC3"
        },
        {
            "bufferView" : 2,
            "componentType" : 5126,
            "count" : 2982,
            "type" : "VEC4"
        },
        {
            "bufferView" : 3,
            "componentType" : 5126,
            "count" : 2982,
            "type" : "VEC2"
        },
        {
            "bufferView" : 4,
            "componentType" : 5123,
            "count" : 2982,
            "type" : "SCALAR"
        }
    ],
    "bufferViews" : [
        {
            "buffer" : 0,
            "byteLength" : 35784,
            "byteOffset" : 0
        },
        {
            "buffer" : 0,
            "byteLength" : 35784,
            "byteOffset" : 35784
        },
        {
            "buffer" : 0,
            "byteLength" : 47712,
            "byteOffset" : 71568
        },
        {
            "buffer" : 0,
            "byteLength" : 23856,
            "byteOffset" : 119280
        },
        {
            "buffer" : 0,
            "byteLength" : 5964,
            "byteOffset" : 143136
        }
    ],
    "samplers" : [
        {
            "magFilter" : 9729,
            "minFilter" : 9986
        }
    ],
    "buffers" : [
        {
            "byteLength" : 149100,
            "uri" : "hard_rock.bin"
        }
    ]
}
