{
    "asset" : {
        "generator" : "Khronos glTF Blender I/O v1.4.40",
        "version" : "2.0"
    },
    "scene" : 0,
    "scenes" : [
        {
            "name" : "Scene",
            "nodes" : [
                0
            ]
        }
    ],
    "nodes" : [
        {
            "mesh" : 0,
            "name" : "Icosphere.001_mat.tree-elm_0.001"
        }
    ],
    "materials" : [
        {
            "doubleSided" : true,
            "name" : "mat.tree-elm.002",
            "pbrMetallicRoughness" : {
                "baseColorTexture" : {
                    "index" : 0,
                    "texCoord" : 0
                },
                "metallicFactor" : 0,
                "roughnessFactor" : 0.7883002758026123
            }
        }
    ],
    "meshes" : [
        {
            "name" : "Icosphere.001_mat.tree-elm_0.002",
            "primitives" : [
                {
                    "attributes" : {
                        "POSITION" : 0,
                        "NORMAL" : 1,
                        "TANGENT" : 2,
                        "TEXCOORD_0" : 3
                    },
                    "indices" : 4,
                    "material" : 0
                }
            ]
        }
    ],
    "textures" : [
        {
            "sampler" : 0,
            "source" : 0
        }
    ],
    "images" : [
        {
            "mimeType" : "image/jpeg",
            "name" : "mat.tree-elm_baseColor",
            "uri" : "mat_tree-elm_baseColor.jpg"
        }
    ],
    "accessors" : [
        {
            "bufferView" : 0,
            "componentType" : 5126,
            "count" : 3122,
            "max" : [
                2.510561466217041,
                8.417781829833984,
                1.7670173645019531
            ],
            "min" : [
                -2.2749857902526855,
                -0.06381940841674805,
                -2.70880389213562
            ],
            "type" : "VEC3"
        },
        {
            "bufferView" : 1,
            "componentType" : 5126,
            "count" : 3122,
            "type" : "VEC3"
        },
        {
            "bufferView" : 2,
            "componentType" : 5126,
            "count" : 3122,
            "type" : "VEC4"
        },
        {
            "bufferView" : 3,
            "componentType" : 5126,
            "count" : 3122,
            "type" : "VEC2"
        },
        {
            "bufferView" : 4,
            "componentType" : 5123,
            "count" : 3768,
            "type" : "SCALAR"
        }
    ],
    "bufferViews" : [
        {
            "buffer" : 0,
            "byteLength" : 37464,
            "byteOffset" : 0
        },
        {
            "buffer" : 0,
            "byteLength" : 37464,
            "byteOffset" : 37464
        },
        {
            "buffer" : 0,
            "byteLength" : 49952,
            "byteOffset" : 74928
        },
        {
            "buffer" : 0,
            "byteLength" : 24976,
            "byteOffset" : 124880
        },
        {
            "buffer" : 0,
            "byteLength" : 7536,
            "byteOffset" : 149856
        }
    ],
    "samplers" : [
        {
            "magFilter" : 9729,
            "minFilter" : 9986
        }
    ],
    "buffers" : [
        {
            "byteLength" : 157392,
            "uri" : "low_poly_tree.bin"
        }
    ]
}
